<svg id="Layer_1" xmlns="http://www.w3.org/2000/svg" viewBox="0 0 160 66"><style>.st0{fill:#00958A;} .st1{fill:none;}</style><path d="M94.5 40.3c1.7 1 3.5 1.4 5.4 1.4 3.5 0 5.6-1.9 5.6-4.6 0-2.5-1.4-3.5-4.1-4.8-2.3-1.2-3.6-1.7-3.6-3 0-.9.7-1.3 2-1.3 1.5 0 3.1.6 4.9 1.5v-3.1c-1.7-.9-3.2-1.3-4.9-1.3-3.3 0-5.3 1.7-5.3 4.3 0 2.3 1.4 3.5 3.8 4.7 2.3 1.2 3.8 1.6 3.8 2.8 0 1-1 1.7-2.6 1.7-1.4 0-3.1-.6-5.1-1.9v3.6zM125.6 41.5h3.1v-9c.6-2.6 2-4 3.6-4 1 0 2 .4 3 1.2L137 27c-1.4-1-2.5-1.5-3.6-1.5-1.8 0-3 1.2-4.6 3.6v-3.4h-3.1l-.1 15.8zM65.5 41.8c-4.7-.6-8.5-5.8-15-.5l-1.4-2c4.2-6.7 7-16.1 20.3-16.1 8.2 0 13.3 4.2 18.8 9.8 2.3 2 2.9 2.4 4.6 3.3v3.5c-3.3-1.7-3.5-2.2-5.9-2.2-5 .4-6.7 3.9-16 4.3h-5.4v-.1zm10.3-3.4c4.2-1.4 6.1-4.4 9.8-3.5-1.7-2.5-6.3-6.2-11-8-3.2-2.8-10.1-1.5-12.1.4-3 .4-5.4 4.6-8.2 8.8 2.4-1.2 5.1-.3 7.1.9 3.1 4.4 11.9 3 14.4 1.4zM110.9 31.8c.5-2.5 2-3.8 4.4-3.8 2.2 0 3.8 1.5 4 3.8h-8.4zm11.5 7.9v-3.2c-2.3 1.5-4.5 2.3-6.5 2.3-3 0-4.9-1.8-5.1-4.8h11.8v-.4c0-5.1-2.9-8.3-7.3-8.3-4.6 0-7.7 3.2-7.7 7.9 0 5.1 3.1 8.5 8.2 8.5 2.3.1 4.5-.6 6.6-2zM44 21c0 1 .9 1.8 1.8 1.8 1 0 1.8-.8 1.8-1.8s-.8-1.8-1.8-1.8c-.9.1-1.8.8-1.8 1.8zm-2 26.1l2 2.2c2.5-1.1 3.4-2.9 3.4-6.1V25.6h-3.2v18c0 1.7-.5 2.7-2.2 3.5zM28 17.6h-8.8v23.9H28c3.2 0 5.8-.6 8-2 3.3-2.2 5.1-5.7 5.1-9.9 0-4.1-1.9-7.7-5.1-9.8-2.3-1.8-4.8-2.2-8-2.2zm0 3.2c6.1 0 9.5 3.5 9.5 8.7s-3.4 8.7-9.5 8.7h-5.4V20.8H28z"/><path class="st0" d="M2.2 29.4l11.1 11.9h3.5C13.2 36.9 10.3 33 6 29.4c4.3-3.9 7.2-7.9 10.7-11.9h-3.5l-11 11.9zM148.8 29.4l-11.1 11.9h-3.5c3.5-4.4 6.5-8.3 10.7-11.9-4.3-3.9-7.2-7.9-10.7-11.9h3.5l11.1 11.9zM69.1 63.3L57.3 52.2v-3.5c4.4 3.5 8.2 6.5 11.8 10.7 3.9-4.3 7.8-7.2 11.9-10.7v3.5L69.1 63.3zM69.1 2.5L57.3 13.6v3.5c4.4-3.5 8.2-6.5 11.8-10.7 3.9 4.2 7.8 7.2 11.9 10.7v-3.5L69.1 2.5zM69.3 42.8c-5.4 0-9.9-4.4-9.9-9.9s4.4-9.9 9.9-9.9 9.9 4.4 9.9 9.9-4.4 9.9-9.9 9.9zm0-16.7c-3.7 0-6.8 3-6.8 6.8s3 6.8 6.8 6.8 6.8-3 6.8-6.8-3-6.8-6.8-6.8z"/><path class="st1" d="M0 0h160v66H0z"/></svg>